<svg width="20" height="15" viewBox="0 0 20 15" fill="none" xmlns="http://www.w3.org/2000/svg">
<path d="M20.0002 8.62511C20.0002 8.87375 19.9014 9.1122 19.7256 9.28802C19.5498 9.46383 19.3113 9.56261 19.0627 9.56261H18.4377V10.1876C18.4377 10.4362 18.3389 10.6747 18.1631 10.8505C17.9873 11.0263 17.7488 11.1251 17.5002 11.1251C17.2515 11.1251 17.0131 11.0263 16.8373 10.8505C16.6615 10.6747 16.5627 10.4362 16.5627 10.1876V9.56261H15.9377C15.689 9.56261 15.4506 9.46383 15.2748 9.28802C15.099 9.1122 15.0002 8.87375 15.0002 8.62511C15.0002 8.37647 15.099 8.13801 15.2748 7.96219C15.4506 7.78638 15.689 7.68761 15.9377 7.68761H16.5627V7.06261C16.5627 6.81397 16.6615 6.57551 16.8373 6.39969C17.0131 6.22388 17.2515 6.12511 17.5002 6.12511C17.7488 6.12511 17.9873 6.22388 18.1631 6.39969C18.3389 6.57551 18.4377 6.81397 18.4377 7.06261V7.68761H19.0627C19.3113 7.68761 19.5498 7.78638 19.7256 7.96219C19.9014 8.13801 20.0002 8.37647 20.0002 8.62511ZM15.7181 13.022C15.8781 13.2124 15.9559 13.4586 15.9343 13.7063C15.9128 13.9541 15.7937 14.1831 15.6033 14.3431C15.4129 14.503 15.1667 14.5808 14.919 14.5593C14.6712 14.5377 14.4422 14.4186 14.2822 14.2282C13.2127 12.9548 11.3283 11.4376 8.43768 11.4376C6.18065 11.4376 4.10487 12.4282 2.59315 14.2282C2.43319 14.4186 2.20414 14.5377 1.95639 14.5593C1.70863 14.5808 1.46247 14.503 1.27205 14.3431C1.08164 14.1831 0.962563 13.9541 0.941026 13.7063C0.919488 13.4586 0.997252 13.2124 1.15721 13.022C2.17575 11.7919 3.48243 10.8324 4.96112 10.229C4.04161 9.5061 3.37033 8.51453 3.04069 7.39228C2.71105 6.27004 2.73945 5.07295 3.12193 3.9676C3.50441 2.86225 4.22196 1.90362 5.17471 1.22512C6.12746 0.546626 7.26802 0.182007 8.43768 0.182007C9.60734 0.182007 10.7479 0.546626 11.7007 1.22512C12.6534 1.90362 13.3709 2.86225 13.7534 3.9676C14.1359 5.07295 14.1643 6.27004 13.8347 7.39228C13.505 8.51453 12.8337 9.5061 11.9142 10.229C13.3931 10.8322 14.6998 11.7917 15.7181 13.022ZM8.43768 9.56261C9.17936 9.56261 9.90438 9.34267 10.5211 8.93062C11.1378 8.51856 11.6184 7.93289 11.9022 7.24767C12.1861 6.56245 12.2603 5.80845 12.1156 5.08102C11.9709 4.35359 11.6138 3.6854 11.0893 3.16096C10.5649 2.63651 9.8967 2.27936 9.16927 2.13466C8.44184 1.98997 7.68784 2.06423 7.00262 2.34806C6.31739 2.63189 5.73172 3.11253 5.31967 3.72922C4.90761 4.3459 4.68768 5.07093 4.68768 5.81261C4.68871 6.80685 5.08413 7.76008 5.78717 8.46312C6.49021 9.16615 7.44344 9.56157 8.43768 9.56261Z" fill="#0D6EFD"/>
</svg>
