<svg width="18" height="18" viewBox="0 0 18 18" fill="none" xmlns="http://www.w3.org/2000/svg">
<path d="M9 0.5625C7.33122 0.5625 5.69992 1.05735 4.31238 1.98448C2.92484 2.9116 1.84338 4.22936 1.20477 5.77111C0.566156 7.31286 0.399065 9.00936 0.724628 10.6461C1.05019 12.2828 1.85379 13.7862 3.03379 14.9662C4.2138 16.1462 5.71721 16.9498 7.35393 17.2754C8.99064 17.6009 10.6871 17.4338 12.2289 16.7952C13.7706 16.1566 15.0884 15.0752 16.0155 13.6876C16.9427 12.3001 17.4375 10.6688 17.4375 9C17.435 6.763 16.5453 4.61833 14.9635 3.03653C13.3817 1.45473 11.237 0.564981 9 0.5625ZM9 15.5625C7.70206 15.5625 6.43327 15.1776 5.35407 14.4565C4.27488 13.7354 3.43374 12.7105 2.93704 11.5114C2.44034 10.3122 2.31038 8.99272 2.5636 7.71972C2.81682 6.44672 3.44183 5.27739 4.35962 4.35961C5.2774 3.44183 6.44672 2.81681 7.71972 2.5636C8.99272 2.31038 10.3122 2.44034 11.5114 2.93704C12.7105 3.43374 13.7354 4.27487 14.4565 5.35407C15.1776 6.43327 15.5625 7.70206 15.5625 9C15.5606 10.7399 14.8686 12.408 13.6383 13.6383C12.408 14.8686 10.7399 15.5606 9 15.5625ZM12.7883 7.08672C12.8757 7.17382 12.945 7.27731 12.9923 7.39126C13.0397 7.50522 13.064 7.62739 13.064 7.75078C13.064 7.87417 13.0397 7.99634 12.9923 8.1103C12.945 8.22425 12.8757 8.32775 12.7883 8.41484L9.66329 11.5398C9.57619 11.6272 9.47269 11.6966 9.35874 11.7439C9.24479 11.7912 9.12261 11.8156 8.99922 11.8156C8.87583 11.8156 8.75366 11.7912 8.6397 11.7439C8.52575 11.6966 8.42226 11.6272 8.33516 11.5398L5.21016 8.41484C5.03404 8.23872 4.9351 7.99985 4.9351 7.75078C4.9351 7.50171 5.03404 7.26284 5.21016 7.08672C5.38628 6.9106 5.62515 6.81166 5.87422 6.81166C6.12329 6.81165 6.36216 6.9106 6.53828 7.08672L9 9.54688L11.4617 7.08438C11.5489 6.99736 11.6525 6.9284 11.7664 6.88142C11.8803 6.83444 12.0023 6.81037 12.1255 6.81059C12.2487 6.81081 12.3706 6.83531 12.4844 6.88269C12.5981 6.93007 12.7014 6.9994 12.7883 7.08672Z" fill="#98A2B3"/>
</svg>
